<svg width="137" height="46" viewBox="0 0 137 46" fill="none" xmlns="http://www.w3.org/2000/svg">
<path fill-rule="evenodd" clip-rule="evenodd" d="M22.294 17.9467V33.1427L19.8445 35.6332H4.9699V30.58H0V15.4199H4.9699V10.3667H14.8745L22.294 17.9467ZM17.3595 30.5799V20.4733L12.3895 15.42H4.97V30.5799H17.3595Z" fill="white"/>
<path d="M54.5621 26.5671C54.5621 27.875 53.492 28.9452 52.1841 28.9452H42.672V17.055H52.1841C53.492 17.055 54.5621 18.1251 54.5621 19.4331V26.5671ZM56.9401 19.4331C56.8688 16.7934 54.7286 14.677 52.1841 14.677H40.2939V31.3232H52.1841C54.8475 31.3232 56.9401 29.0878 56.9401 26.5671V19.4331Z" fill="white"/>
<path d="M61.4593 17.055H75.7275V14.677H59.0813V31.3232H75.7275V28.9452H61.4593V24.1891H73.3494V21.8111H61.4593V17.055Z" fill="white"/>
<path d="M80.0144 14.677H77.6364V31.3232H94.2826V28.9452H80.0144V14.677Z" fill="white"/>
<path d="M107.362 17.055C108.67 17.055 109.74 18.1251 109.74 19.4331V24.1891H97.8496V19.4331C97.8496 18.1251 98.9197 17.055 100.228 17.055H107.362ZM112.118 19.4331C112.046 16.7934 109.906 14.677 107.362 14.677H100.228C97.5642 14.677 95.4716 16.9123 95.4716 19.4331V31.3232H97.8496V26.5671H109.74V31.3232H112.118V19.4331Z" fill="white"/>
<path d="M126.381 31.3232C129.045 31.2518 131.137 29.1354 131.137 26.5671C131.137 25.1403 130.59 23.9513 129.52 23.0001C130.59 22.0489 131.137 20.8599 131.137 19.4331C131.137 16.7934 128.878 14.677 126.381 14.677H114.491V31.3232H126.381ZM126.381 24.1891C127.689 24.1891 128.759 25.2592 128.759 26.5671C128.759 27.875 127.689 28.9452 126.381 28.9452H116.869V24.1891H126.381ZM116.869 17.055H126.381C127.689 17.055 128.759 18.1251 128.759 19.4331C128.759 20.741 127.689 21.8111 126.381 21.8111H116.869V17.055Z" fill="white"/>
</svg>
